<svg xmlns="http://www.w3.org/2000/svg"  viewBox="0 0 48 48" width="48px" height="48px"><radialGradient id="a6dyVvKDQokj3K_z8QbPwa" cx="24" cy="24" r="18" fx="23.905" fy="16.289" gradientTransform="matrix(-1 0 0 1 48 0)" gradientUnits="userSpaceOnUse"><stop offset="0" stop-color="#ffe16e"/><stop offset=".629" stop-color="#ffd226"/><stop offset=".75" stop-color="#fdcd23"/><stop offset=".899" stop-color="#f6bd1b"/><stop offset=".999" stop-color="#f0af13"/></radialGradient><circle cx="24" cy="24" r="18" fill="url(#a6dyVvKDQokj3K_z8QbPwa)"/><radialGradient id="a6dyVvKDQokj3K_z8QbPwb" cx="24" cy="23.779" r="11.171" fx="23.992" fy="24.198" gradientUnits="userSpaceOnUse"><stop offset=".371" stop-color="#ffd226"/><stop offset=".948" stop-color="#ffe16e"/><stop offset="1" stop-color="#ffe16e" stop-opacity="0"/></radialGradient><path fill="url(#a6dyVvKDQokj3K_z8QbPwb)" d="M35,23c0,0,0.139,12-11,12S13,23,13,23s2.444,0,11,0S35,23,35,23z"/><path fill="#212121" d="M34.499,20c-0.102,0-0.204-0.031-0.292-0.095C34.18,19.886,31.525,18,27.5,18	c-0.24,0-0.446-0.17-0.491-0.405c-0.045-0.235,0.083-0.47,0.306-0.559l5-2c0.254-0.103,0.547,0.022,0.65,0.279	c0.103,0.256-0.022,0.547-0.279,0.65l-0.453,0.181c-0.777,0.311-0.742,1.406,0.044,1.692c1.547,0.563,2.452,1.211,2.517,1.258	c0.223,0.163,0.272,0.475,0.11,0.698C34.807,19.928,34.654,20,34.499,20z"/><path fill="#212121" d="M13.501,20c0.102,0,0.204-0.031,0.292-0.095C13.82,19.886,16.475,18,20.5,18	c0.24,0,0.446-0.17,0.491-0.405c0.045-0.235-0.083-0.47-0.306-0.559l-5-2c-0.254-0.103-0.547,0.022-0.65,0.279	c-0.103,0.256,0.022,0.547,0.279,0.65l0.453,0.181c0.777,0.311,0.742,1.406-0.044,1.692c-1.547,0.563-2.452,1.211-2.517,1.258	c-0.223,0.163-0.272,0.475-0.11,0.698C13.193,19.928,13.346,20,13.501,20z"/><radialGradient id="a6dyVvKDQokj3K_z8QbPwc" cx="24.15" cy="20.514" r="13.04" gradientTransform="matrix(-1 0 0 1 48 0)" gradientUnits="userSpaceOnUse"><stop offset="0" stop-color="#1c1911"/><stop offset=".999" stop-color="#171714"/></radialGradient><path fill="url(#a6dyVvKDQokj3K_z8QbPwc)" d="M13,23c0,6.075,4.925,11,11,11s11-4.925,11-11c0,0-4-2-11-2S13,23,13,23z"/><radialGradient id="a6dyVvKDQokj3K_z8QbPwd" cx="24" cy="35.731" r="5.91" gradientTransform="matrix(0 1 -.9954 0 59.567 11.731)" gradientUnits="userSpaceOnUse"><stop offset=".456" stop-color="#db4a59"/><stop offset=".602" stop-color="#d84756"/><stop offset=".729" stop-color="#cd3e4d"/><stop offset=".85" stop-color="#bb303e"/><stop offset=".965" stop-color="#a21b29"/><stop offset=".999" stop-color="#991421"/></radialGradient><path fill="url(#a6dyVvKDQokj3K_z8QbPwd)" d="M25,30c-0.516,0-1,0.5-1,0.5S23.516,30,23,30c-2.081,0-3.426,1.959-3.426,1.959	C20.91,32.622,22.411,33,24,33s3.09-0.378,4.426-1.041C28.426,31.959,27.081,30,25,30z"/><radialGradient id="a6dyVvKDQokj3K_z8QbPwe" cx="24.101" cy="26.227" r="10.381" gradientUnits="userSpaceOnUse"><stop offset=".819" stop-color="#cc9000"/><stop offset=".988" stop-color="#fbbc23" stop-opacity=".069"/><stop offset="1" stop-color="#ffbf26" stop-opacity="0"/></radialGradient><path fill="url(#a6dyVvKDQokj3K_z8QbPwe)" d="M24,35c-3.484,0-6.64-1.378-8.974-3.609C16.653,34.709,20.055,37,24,37	s7.347-2.291,8.974-5.609C30.64,33.622,27.484,35,24,35z"/><linearGradient id="a6dyVvKDQokj3K_z8QbPwf" x1="15" x2="33" y1="24" y2="24" gradientUnits="userSpaceOnUse"><stop offset=".001" stop-color="#968f72"/><stop offset=".048" stop-color="#b2ad97"/><stop offset=".098" stop-color="#cac6b7"/><stop offset=".153" stop-color="#dddbd2"/><stop offset=".213" stop-color="#ecebe6"/><stop offset=".281" stop-color="#f7f6f4"/><stop offset=".363" stop-color="#fdfdfc"/><stop offset=".5" stop-color="#fff"/><stop offset=".637" stop-color="#fdfdfc"/><stop offset=".719" stop-color="#f7f6f4"/><stop offset=".787" stop-color="#ecebe6"/><stop offset=".847" stop-color="#dddbd2"/><stop offset=".902" stop-color="#cac6b7"/><stop offset=".952" stop-color="#b2ad97"/><stop offset="1" stop-color="#968f72"/></linearGradient><path fill="url(#a6dyVvKDQokj3K_z8QbPwf)" d="M15,23.322V24c0,1.105,0.895,2,2,2h14c1.105,0,2-0.895,2-2v-0.678c0,0-3.989-1.322-9-1.322	S15,23.322,15,23.322z"/></svg>